<svg width="235" height="235" viewBox="0 0 235 235" xmlns="http://www.w3.org/2000/svg"><g fill="none" fill-rule="evenodd"><path d="M117.501 5C55.368 5 5 55.368 5 117.5S55.368 230 117.501 230C179.632 230 230 179.632 230 117.5S179.632 5 117.501 5z" fill="#217CA2"/><path d="M117.998 154.643c-9.887 13.034-9.887 25.855 0 38.457 9.89-12.602 9.89-25.42 0-38.456zm0-106.415c-22.695 28.571-22.695 57.637 0 87.2 22.7-29.563 22.697-58.629 0-87.2zM66.592 175.58c8.367-18.976 25.893-28.347 45.469-28.108-24.835-25.724-46.407-36.086-64.71-31.08 2.432 14.179 12.318 26.227 29.645 36.16-19.94-6.285-34.939-21.484-44.996-45.59 29.916-5.078 53.47 2.285 70.666 22.055C86.985 95.56 92.091 62.553 117.998 30c25.907 32.552 31.013 65.56 15.336 99.019 17.196-19.77 40.748-27.134 70.666-22.057-10.057 24.107-25.057 39.306-44.994 45.589 17.33-9.93 27.21-21.98 29.645-36.159-18.306-5.006-39.88 5.363-64.712 31.08 19.575-.238 37.103 9.126 45.469 28.11-14.792 3.295-26.956 1.037-36.488-6.79 10.413 5.258 19.401 6.047 26.96 2.353-3.31-9.988-17.945-16.89-36.663-20.706 10.676 18.457 8.94 36.646-5.22 54.561-14.154-17.915-15.892-36.109-5.217-54.56-18.715 3.813-33.35 10.717-36.66 20.705 7.557 3.686 16.545 2.905 26.958-2.352-9.532 7.826-21.694 10.084-36.486 6.788z" fill="#FFF"/></g></svg>