<svg width="50" height="50" xmlns="http://www.w3.org/2000/svg" viewBox="0 0 100 100"><path d="M42 7l-2.72 11.78c-1.295.446-2.562.967-3.78 1.564l-10.25-6.407L13.937 25.25l6.407 10.25c-.597 1.218-1.117 2.485-1.563 3.78L7 42v16l11.78 2.72c.446 1.295.967 2.562 1.564 3.78l-6.407 10.25L25.25 86.063l10.25-6.407c1.218.597 2.485 1.118 3.78 1.563L42 93h16l2.72-11.78c1.295-.446 2.562-.967 3.78-1.564l10.25 6.407L86.063 74.75 79.656 64.5c.597-1.218 1.117-2.485 1.563-3.78L93 58V42l-11.78-2.72c-.446-1.295-.967-2.562-1.564-3.78l6.406-10.25L74.75 13.937 64.5 20.344c-1.218-.597-2.485-1.118-3.78-1.563L58 7H42zm8 23c11.046 0 20 8.954 20 20s-8.954 20-20 20-20-8.954-20-20 8.954-20 20-20z" overflow="visible" fill="#808080"/></svg>