<svg width="18" height="18" xmlns="http://www.w3.org/2000/svg"><path d="M7.512 1l-.506 2.192c-.241.083-.477.18-.704.29L4.395 2.292 2.291 4.395l1.192 1.907a6.147 6.147 0 0 0-.291.704L1 7.512v2.976l2.192.506c.083.241.18.477.29.704l-1.191 1.907 2.104 2.104 1.907-1.192c.227.111.463.208.704.291L7.512 17h2.976l.506-2.192c.241-.083.477-.18.704-.29l1.907 1.191 2.104-2.104-1.192-1.907c.111-.227.208-.463.291-.704L17 10.488V7.512l-2.192-.506a6.148 6.148 0 0 0-.29-.704l1.191-1.907-2.104-2.104-1.907 1.192a6.113 6.113 0 0 0-.704-.291L10.488 1H7.512zM9 5.28a3.72 3.72 0 1 1 0 7.44 3.72 3.72 0 0 1 0-7.44z" stroke="#579FFB" stroke-width=".85" fill="none" fill-rule="evenodd"/></svg>