<svg width="13" height="13" viewBox="0 0 13 13" xmlns="http://www.w3.org/2000/svg"><path d="M6.314 6.018L4.458 4.162c-.22-.22-.576-.22-.796 0-.22.22-.22.576 0 .796l1.856 1.856L3.662 8.67c-.22.22-.22.576 0 .795.22.22.576.22.796 0L6.314 7.61 8.17 9.464c.22.22.576.22.795 0 .22-.22.22-.575 0-.795L7.11 6.814l1.855-1.856c.22-.22.22-.576 0-.796-.22-.22-.575-.22-.795 0L6.314 6.018zM2.07 11.056C-.27 8.713-.27 4.914 2.07 2.57 4.415.23 8.214.23 10.557 2.57c2.343 2.344 2.343 6.143 0 8.486-2.343 2.343-6.142 2.343-8.485 0z" fill="#717171" fill-rule="evenodd"/></svg>