<svg width="64" height="64" xmlns="http://www.w3.org/2000/svg"><g fill="#000" fill-rule="evenodd"><path d="M32 64C14.327 64 0 49.673 0 32 0 14.327 14.327 0 32 0c17.673 0 32 14.327 32 32 0 17.673-14.327 32-32 32zm0-5c14.912 0 27-12.088 27-27S46.912 5 32 5 5 17.088 5 32s12.088 27 27 27z" fill-rule="nonzero"/><path d="M19.866 50.354L28.277 38.2l2.846 3.326a.461.461 0 0 0 .751-.072l8.62-15.184 2.676 4.544a.461.461 0 0 0 .848-.135l3.195-14.57A21.937 21.937 0 0 1 54 32c0 12.15-9.85 22-22 22a21.897 21.897 0 0 1-12.134-3.646zm-8.522-10.766A21.956 21.956 0 0 1 10 32c0-12.15 9.85-22 22-22 5.468 0 10.47 1.995 14.319 5.297L32.457 21.18a.461.461 0 0 0 .014.854l4.934 1.912-6.915 6.876-2.624-3.044a.461.461 0 0 0-.625-.068L11.344 39.588z"/></g></svg>