<svg width="10" height="10" viewBox="0 0 10 10" xmlns="http://www.w3.org/2000/svg"><path d="M9.816 8.98L7.08 6.244c.49-.67.752-1.48.75-2.31C7.82 1.768 6.066.014 3.9 0 2.864-.005 1.868.406 1.135 1.14.403 1.872-.005 2.87 0 3.905.01 6.072 1.762 7.828 3.93 7.84c.832.004 1.644-.262 2.314-.758l.003-.002 2.735 2.736c.148.156.368.218.576.165.207-.053.37-.215.423-.423.055-.207-.008-.428-.164-.576zm-5.89-1.924C2.193 7.046.79 5.642.783 3.91c-.005-.83.322-1.627.908-2.214C2.278 1.11 3.075.78 3.904.784c1.733.01 3.135 1.414 3.143 3.147.004.83-.323 1.627-.91 2.214-.585.587-1.38.915-2.21.912z" fill="#717171" fill-rule="evenodd"/></svg>