<svg width="90" height="14" xmlns="http://www.w3.org/2000/svg"><path d="M6.331 13.991C2.43 13.991 0 11.507 0 7.244 0 2.99 2.448.506 6.331.506c3.297 0 5.799 2.122 5.898 5.202H9.041c-.163-1.535-1.255-2.547-2.71-2.547-1.806 0-2.953 1.545-2.953 4.074 0 2.556 1.138 4.1 2.962 4.1 1.455 0 2.511-.957 2.72-2.483h3.187c-.153 3.098-2.556 5.139-5.916 5.139zM18.086 14c-3.098 0-5.031-1.879-5.031-5.157 0-3.216 1.978-5.149 5.03-5.149 3.071 0 5.031 1.924 5.031 5.149 0 3.287-1.932 5.157-5.03 5.157zm0-2.348c1.092 0 1.788-1.003 1.788-2.8 0-1.77-.696-2.81-1.788-2.81-1.084 0-1.78 1.04-1.78 2.81 0 1.797.678 2.8 1.78 2.8zm6.064 2.113V3.93h3.197v9.836H24.15zm1.598-10.63c-.93 0-1.643-.687-1.643-1.572 0-.886.713-1.563 1.643-1.563s1.635.677 1.635 1.563c0 .885-.704 1.571-1.635 1.571zm2.93 10.63V3.93h3.116v1.852h.064c.505-1.31 1.535-2.042 3.043-2.042 2.195 0 3.414 1.373 3.414 3.713v6.313h-3.197V8.138c0-1.12-.533-1.788-1.58-1.788-1.021 0-1.653.767-1.653 1.851v5.564h-3.207zm15.792 0h-3.306V3.405H37.57V.732h10.496v2.673H44.47v10.36zm4.194 0V3.93h3.198v9.836h-3.198zm1.599-10.63c-.93 0-1.644-.687-1.644-1.572C48.62.677 49.333 0 50.263 0c.93 0 1.635.677 1.635 1.563 0 .885-.705 1.571-1.635 1.571zm12.26 4.678h-2.944c-.109-1.02-.723-1.68-1.653-1.68-1.13 0-1.789.975-1.789 2.71 0 1.752.66 2.727 1.789 2.727.939 0 1.544-.605 1.662-1.625h2.935C62.442 12.446 60.663 14 57.89 14c-3.08 0-4.995-1.933-4.995-5.157 0-3.189 1.915-5.149 4.976-5.149 2.773 0 4.57 1.653 4.652 4.119zm4.258-.145l2.827-3.739h3.567l-3.495 4.21 3.703 5.626h-3.685l-2.394-3.712-.578.695v3.017H63.52V.732h3.206v6.936h.055zM77.894 5.97c-.985 0-1.717.732-1.798 1.753h3.577c-.054-1.048-.768-1.753-1.78-1.753zm1.851 4.688h2.89C82.328 12.69 80.522 14 77.948 14c-3.134 0-5.004-1.924-5.004-5.103 0-3.18 1.888-5.203 4.895-5.203 2.963 0 4.85 1.942 4.85 4.95v.903h-6.638v.199c0 1.174.786 1.987 1.942 1.987.858 0 1.526-.407 1.752-1.075zm3.95 3.107V3.93h3.117v1.86h.063c.361-1.327 1.156-2.004 2.312-2.004.325 0 .596.045.813.126v2.728a2.863 2.863 0 0 0-1.02-.18c-1.346 0-2.078.758-2.078 2.13v5.176h-3.206z" fill="#4C4D4F" fill-rule="evenodd"/></svg>