<svg width="79" height="13" xmlns="http://www.w3.org/2000/svg"><path d="M6.016 12.195C2.64 12.195.539 10.047.539 6.36.54 2.68 2.656.531 6.016.531c2.851 0 5.015 1.836 5.101 4.5H8.36c-.14-1.328-1.086-2.203-2.343-2.203-1.563 0-2.555 1.336-2.555 3.524 0 2.21.984 3.546 2.562 3.546 1.258 0 2.172-.828 2.352-2.148h2.758c-.133 2.68-2.211 4.445-5.117 4.445zm10.167.008c-2.68 0-4.352-1.625-4.352-4.46 0-2.782 1.711-4.454 4.352-4.454 2.656 0 4.351 1.664 4.351 4.453 0 2.844-1.671 4.461-4.351 4.461zm0-2.031c.945 0 1.547-.867 1.547-2.422 0-1.531-.602-2.43-1.547-2.43-.938 0-1.54.899-1.54 2.43 0 1.555.587 2.422 1.54 2.422zM21.428 12V3.492h2.766V12h-2.766zm1.383-9.195c-.805 0-1.422-.594-1.422-1.36 0-.765.617-1.351 1.422-1.351.805 0 1.414.586 1.414 1.351 0 .766-.61 1.36-1.414 1.36zM25.345 12V3.492h2.696v1.602h.054c.438-1.133 1.328-1.766 2.633-1.766 1.899 0 2.953 1.188 2.953 3.211V12h-2.765V7.133c0-.969-.461-1.547-1.368-1.547-.882 0-1.43.664-1.43 1.601V12h-2.773zm13.66 0h-2.86V3.04h-3.11V.726h9.08v2.312h-3.11V12zm3.628 0V3.492h2.765V12h-2.765zm1.383-9.195c-.805 0-1.422-.594-1.422-1.36 0-.765.617-1.351 1.422-1.351.804 0 1.414.586 1.414 1.351 0 .766-.61 1.36-1.414 1.36zM54.62 6.852h-2.547c-.093-.883-.625-1.454-1.43-1.454-.976 0-1.546.844-1.546 2.344 0 1.516.57 2.36 1.547 2.36.812 0 1.336-.524 1.437-1.407h2.54c-.071 2.164-1.61 3.508-4.008 3.508-2.665 0-4.32-1.672-4.32-4.46 0-2.759 1.655-4.454 4.304-4.454 2.398 0 3.953 1.43 4.023 3.563zm3.683-.125l2.445-3.235h3.086l-3.023 3.64L64.014 12h-3.187l-2.07-3.21-.5.6V12h-2.774V.727h2.773v6h.047zm9.613-1.47c-.852 0-1.485.634-1.555 1.516h3.094c-.047-.906-.664-1.515-1.54-1.515zm1.601 4.056h2.5c-.265 1.757-1.828 2.89-4.054 2.89-2.711 0-4.329-1.664-4.329-4.414s1.633-4.5 4.235-4.5c2.562 0 4.195 1.68 4.195 4.281v.782h-5.742v.171c0 1.016.68 1.72 1.68 1.72.742 0 1.32-.352 1.515-.93zM72.934 12V3.492h2.696v1.61h.054c.313-1.149 1-1.735 2-1.735.282 0 .516.04.703.11v2.359a2.476 2.476 0 0 0-.882-.156c-1.164 0-1.797.656-1.797 1.843V12h-2.774z" fill="#4C4D4F" fill-rule="evenodd"/></svg>