<svg width="227" height="227" viewBox="0 0 227 227" xmlns="http://www.w3.org/2000/svg"><g transform="translate(-3 -3)" fill-rule="nonzero" stroke="#FFF" stroke-width="3.661" fill="#000"><path d="M131.26 162.825L61.91 93.94l1.096 122.633zM23.63 161.727l39.15 52.275L60.846 10.75l-48.34 50.643z"/><path d="M131.342 163.403L133.86 61.35 61.91 94.255zM61.78 93.94L133 61.1 61.042 10.75z"/><ellipse transform="rotate(-88.69 61.043 12.47)" cx="61.043" cy="12.47" rx="7.3" ry="7.323"/><ellipse transform="rotate(-88.69 133.86 61.35)" cx="133.86" cy="61.349" rx="7.3" ry="7.323"/><ellipse transform="rotate(-88.69 12.498 63.07)" cx="12.498" cy="63.069" rx="7.3" ry="7.323"/><ellipse transform="rotate(-88.69 23.77 163.403)" cx="23.769" cy="163.403" rx="7.3" ry="7.323"/><ellipse transform="rotate(-88.69 63.65 214.002)" cx="63.649" cy="214.002" rx="7.3" ry="7.323"/><ellipse transform="rotate(-88.69 130.4 164.26)" cx="130.4" cy="164.26" rx="7.3" ry="7.323"/><ellipse transform="rotate(-88.69 61.05 95.662)" cx="61.05" cy="95.662" rx="7.3" ry="7.323"/></g></svg>